<?xml version="1.0" encoding="UTF-8" standalone="no"?>
<svg width="152px" height="152px" viewBox="0 0 152 152" version="1.1" xmlns="http://www.w3.org/2000/svg" xmlns:xlink="http://www.w3.org/1999/xlink" xmlns:sketch="http://www.bohemiancoding.com/sketch/ns">
    <!-- Generator: Sketch 3.4.4 (17249) - http://www.bohemiancoding.com/sketch -->
    <title>152x152</title>
    <desc>Created with Sketch.</desc>
    <defs></defs>
    <g id="Welcome" stroke="none" stroke-width="1" fill="none" fill-rule="evenodd" sketch:type="MSPage">
        <g id="152x152" sketch:type="MSArtboardGroup" fill="#AC071B">
            <g id="y-+-t" sketch:type="MSLayerGroup" transform="translate(21.000000, 16.000000)">
                <path d="M0.39,22.79 L16.64,22.79 L34.19,72.97 L34.45,72.97 L51.48,22.79 L66.95,22.79 L40.82,93.64 C39.6066606,96.6733485 38.4150058,99.5766528 37.245,102.35 C36.0749941,105.123347 34.6450084,107.571656 32.955,109.695 C31.2649915,111.818344 29.1633459,113.508327 26.65,114.765 C24.1366541,116.021673 20.9300195,116.65 17.03,116.65 C13.563316,116.65 10.1400169,116.390003 6.76,115.87 L6.76,103.39 C7.9733394,103.563334 9.1433277,103.758332 10.27,103.975 C11.3966723,104.191668 12.5666606,104.3 13.78,104.3 C15.513342,104.3 16.9433277,104.083336 18.07,103.65 C19.1966723,103.216665 20.1283296,102.588337 20.865,101.765 C21.6016703,100.941663 22.2299974,99.9666723 22.75,98.84 C23.2700026,97.7133277 23.7466645,96.4133407 24.18,94.94 L25.87,89.74 L0.39,22.79 Z" id="y" sketch:type="MSShapeGroup"></path>
                <path d="M61.04,22.79 L72.22,22.79 L72.22,2.64 L87.04,2.64 L87.04,22.79 L100.43,22.79 L100.43,33.84 L87.04,33.84 L87.04,69.72 C87.04,71.2800078 87.1049994,72.6233277 87.235,73.75 C87.3650007,74.8766723 87.668331,75.8299961 88.145,76.61 C88.6216691,77.3900039 89.3366619,77.9749981 90.29,78.365 C91.2433381,78.755002 92.5433251,78.95 94.19,78.95 C95.2300052,78.95 96.2699948,78.9283336 97.31,78.885 C98.3500052,78.8416665 99.3899948,78.6900013 100.43,78.43 L100.43,89.87 C98.7833251,90.0433342 97.1800078,90.2166658 95.62,90.39 C94.0599922,90.5633342 92.4566749,90.65 90.81,90.65 C86.9099805,90.65 83.7683453,90.2816704 81.385,89.545 C79.0016548,88.8083297 77.1383401,87.7250072 75.795,86.295 C74.45166,84.8649929 73.5416691,83.0666775 73.065,80.9 C72.588331,78.7333225 72.3066671,76.2633472 72.22,73.49 L72.22,33.84 L61.04,33.84 L61.04,22.79 Z" id="t" sketch:type="MSShapeGroup"></path>
            </g>
        </g>
    </g>
</svg>