<?xml version="1.0" encoding="UTF-8" standalone="no"?>
<svg width="48px" height="48px" viewBox="0 0 48 48" version="1.1" xmlns="http://www.w3.org/2000/svg" xmlns:xlink="http://www.w3.org/1999/xlink" xmlns:sketch="http://www.bohemiancoding.com/sketch/ns">
    <!-- Generator: Sketch 3.4.4 (17249) - http://www.bohemiancoding.com/sketch -->
    <title>48x48</title>
    <desc>Created with Sketch.</desc>
    <defs></defs>
    <g id="Welcome" stroke="none" stroke-width="1" fill="none" fill-rule="evenodd" sketch:type="MSPage">
        <g id="48x48" sketch:type="MSArtboardGroup" fill="#AC071B">
            <g id="y-+-t" sketch:type="MSLayerGroup" transform="translate(6.000000, 4.000000)">
                <path d="M0.13,7.59666667 L5.54666667,7.59666667 L11.3966667,24.3233333 L11.4833333,24.3233333 L17.16,7.59666667 L22.3166667,7.59666667 L13.6066667,31.2133333 C13.2022202,32.2244495 12.8050019,33.1922176 12.415,34.1166667 C12.024998,35.0411157 11.5483361,35.8572187 10.985,36.565 C10.4216638,37.2727813 9.7211153,37.836109 8.88333333,38.255 C8.04555137,38.673891 6.97667317,38.8833333 5.67666667,38.8833333 C4.52110533,38.8833333 3.38000563,38.7966675 2.25333333,38.6233333 L2.25333333,34.4633333 C2.6577798,34.5211114 3.0477759,34.5861108 3.42333333,34.6583333 C3.79889077,34.7305559 4.18888687,34.7666667 4.59333333,34.7666667 C5.171114,34.7666667 5.6477759,34.6944452 6.02333333,34.55 C6.39889077,34.4055548 6.70944322,34.1961125 6.955,33.9216667 C7.20055678,33.6472208 7.40999913,33.3222241 7.58333333,32.9466667 C7.75666753,32.5711092 7.91555483,32.1377802 8.06,31.6466667 L8.62333333,29.9133333 L0.13,7.59666667 Z" id="y" sketch:type="MSShapeGroup"></path>
                <path d="M20.3466667,7.59666667 L24.0733333,7.59666667 L24.0733333,0.88 L29.0133333,0.88 L29.0133333,7.59666667 L33.4766667,7.59666667 L33.4766667,11.28 L29.0133333,11.28 L29.0133333,23.24 C29.0133333,23.7600026 29.0349998,24.2077759 29.0783333,24.5833333 C29.1216669,24.9588908 29.222777,25.2766654 29.3816667,25.5366667 C29.5405564,25.796668 29.7788873,25.991666 30.0966667,26.1216667 C30.414446,26.2516673 30.847775,26.3166667 31.3966667,26.3166667 C31.7433351,26.3166667 32.0899983,26.3094445 32.4366667,26.295 C32.7833351,26.2805555 33.1299983,26.2300004 33.4766667,26.1433333 L33.4766667,29.9566667 C32.927775,30.0144447 32.3933359,30.0722219 31.8733333,30.13 C31.3533307,30.1877781 30.8188916,30.2166667 30.27,30.2166667 C28.9699935,30.2166667 27.9227818,30.0938901 27.1283333,29.8483333 C26.3338849,29.6027766 25.71278,29.2416691 25.265,28.765 C24.81722,28.288331 24.5138897,27.6888925 24.355,26.9666667 C24.1961103,26.2444408 24.1022224,25.4211157 24.0733333,24.4966667 L24.0733333,11.28 L20.3466667,11.28 L20.3466667,7.59666667 Z" id="t" sketch:type="MSShapeGroup"></path>
            </g>
        </g>
    </g>
</svg>